<?xml version="1.0" encoding="UTF-8"?>
<svg version="1.1" xmlns="http://www.w3.org/2000/svg" width="180" height="180">
<path d="M0 0 C1.23414642 -0.00890762 2.46829285 -0.01781525 3.73983765 -0.0269928 C7.08761384 -0.04450966 10.43312575 -0.0355064 13.78072214 -0.01252341 C17.30474605 0.00657125 20.82870105 -0.00479313 24.35275269 -0.01142883 C30.26530081 -0.01774374 36.17739168 0.00036949 42.08984375 0.03320312 C48.90207043 0.07072329 55.71343288 0.06889626 62.52570546 0.04616195 C69.11243771 0.02513723 75.69885388 0.03252746 82.28557968 0.0524807 C85.07407672 0.06041707 87.86230277 0.05853576 90.65079117 0.04845619 C94.55137903 0.0358437 98.45108099 0.06479554 102.3515625 0.09765625 C103.49365173 0.08910614 104.63574097 0.08055603 105.81243896 0.07174683 C116.12211464 0.22104256 123.70007758 3.81068855 131.22607422 10.8034668 C139.51716414 19.71727807 141.34642363 27.88473048 141.33691406 39.7734375 C141.34363129 40.97905334 141.35034851 42.18466919 141.35726929 43.42681885 C141.37298088 46.72249464 141.37962249 50.01791835 141.38090086 53.31361413 C141.38232606 55.37644219 141.38660264 57.43924411 141.39189529 59.50206566 C141.4103792 66.70956464 141.41856805 73.91698982 141.41699219 81.12451172 C141.41579154 87.82515971 141.43688274 94.5254852 141.46847951 101.22605163 C141.49469974 106.99358444 141.50535707 112.76101231 141.50408137 118.52860421 C141.50357337 121.96679457 141.50916552 125.40469818 141.53043747 128.84282875 C141.55008196 132.68194794 141.54426417 136.52024188 141.53222656 140.359375 C141.54346558 141.48643356 141.55470459 142.61349213 141.56628418 143.77470398 C141.49404418 152.86367595 139.18088221 159.62332248 133.48388672 166.76049805 C132.90509766 167.50299805 132.32630859 168.24549805 131.72998047 169.01049805 C130.04638672 170.76049805 130.04638672 170.76049805 127.04638672 171.76049805 C127.04638672 172.42049805 127.04638672 173.08049805 127.04638672 173.76049805 C118.5683847 178.78003127 111.9284475 180.64178436 102.12451172 180.53686523 C100.89357788 180.54737915 99.66264404 180.55789307 98.39440918 180.56872559 C95.05477845 180.59043449 91.71741257 180.58559769 88.37791443 180.56645107 C84.86015092 180.55110929 81.34247491 180.56538977 77.82470703 180.57476807 C71.92056191 180.58564066 66.01686918 180.57141342 60.11279297 180.54272461 C53.31641504 180.51007838 46.52111756 180.52065853 39.72476578 180.55368304 C33.85762505 180.58103582 27.99080688 180.58469281 22.12362289 180.56905103 C18.63338297 180.55976464 15.1436485 180.55825928 11.65344238 180.57826996 C7.75796516 180.5990499 3.86366835 180.57013752 -0.03173828 180.53686523 C-1.16663696 180.54901062 -2.30153564 180.56115601 -3.4708252 180.57366943 C-11.8438045 180.4420336 -17.78168251 178.00675143 -24.95361328 173.76049805 C-24.95361328 173.10049805 -24.95361328 172.44049805 -24.95361328 171.76049805 C-25.61361328 171.76049805 -26.27361328 171.76049805 -26.95361328 171.76049805 C-26.95361328 171.10049805 -26.95361328 170.44049805 -26.95361328 169.76049805 C-27.82953125 169.43178711 -27.82953125 169.43178711 -28.72314453 169.09643555 C-31.66611573 167.33374527 -32.84497154 165.29205279 -34.64111328 162.38549805 C-35.54410156 160.95077148 -35.54410156 160.95077148 -36.46533203 159.48706055 C-38.66648856 155.45449556 -39.07933225 152.17912205 -39.10751343 147.61474609 C-39.11611389 146.5748201 -39.12471436 145.5348941 -39.13357544 144.4634552 C-39.13783539 143.32784653 -39.14209534 142.19223785 -39.14648438 141.0222168 C-39.15466187 139.82171188 -39.16283936 138.62120697 -39.17126465 137.38432312 C-39.19610471 133.40555145 -39.21279218 129.42681778 -39.22705078 125.44799805 C-39.23241402 124.07383214 -39.23779153 122.69966629 -39.24318314 121.32550049 C-39.26480839 115.60360626 -39.28353978 109.88171477 -39.29480553 104.15979004 C-39.31100952 95.98570346 -39.34410402 87.81209483 -39.40120637 79.63818836 C-39.44006343 73.87745844 -39.45945706 68.11685546 -39.46472609 62.35599804 C-39.46835982 58.9226102 -39.48016584 55.48973277 -39.51282883 52.05648804 C-39.5445916 48.21527279 -39.54449906 44.37524867 -39.53710938 40.53393555 C-39.55351471 39.41452072 -39.56992004 38.2951059 -39.58682251 37.14176941 C-39.52282229 28.96729062 -38.03254396 20.2494702 -32.33382225 13.97787476 C-30.70361328 12.63549805 -30.70361328 12.63549805 -27.95361328 10.76049805 C-27.62361328 10.10049805 -27.29361328 9.44049805 -26.95361328 8.76049805 C-26.29361328 8.76049805 -25.63361328 8.76049805 -24.95361328 8.76049805 C-24.95361328 8.10049805 -24.95361328 7.44049805 -24.95361328 6.76049805 C-16.46264323 1.72851807 -9.82015424 -0.11835909 0 0 Z " fill="#FEFEFD" transform="translate(38.95361328125,0.239501953125)"/>
<path d="M0 0 C2.31040908 1.2149565 4.32237502 2.53794473 6.390625 4.12890625 C7.29361328 4.82113281 7.29361328 4.82113281 8.21484375 5.52734375 C17.26209563 13.53771957 22.90590656 26.78681786 26.390625 38.12890625 C26.390625 39.11890625 26.390625 40.10890625 26.390625 41.12890625 C27.01066406 41.14308594 27.63070312 41.15726563 28.26953125 41.171875 C34.30448592 41.49690167 39.78276066 42.61296841 45.515625 44.44140625 C46.17892822 44.64209717 46.84223145 44.84278809 47.52563477 45.04956055 C52.07007544 46.57859214 52.07007544 46.57859214 53.5078125 49.046875 C53.390625 51.12890625 53.390625 51.12890625 52.55859375 53.42578125 C49.93979302 55.48307336 49.17936492 55.31494967 45.94140625 55.08203125 C44.1925506 54.86924273 42.4463203 54.6339458 40.703125 54.37890625 C39.81044922 54.26546875 38.91777344 54.15203125 37.99804688 54.03515625 C35.79233737 53.75207054 33.59116152 53.44937581 31.390625 53.12890625 C31.89866817 54.85625302 32.40679692 56.58357464 32.9152832 58.31079102 C33.36183941 59.83039794 33.80696046 61.35042726 34.25073242 62.87084961 C35.41299162 66.84540838 36.59644092 70.8105072 37.8359375 74.76171875 C38.06514893 75.50494385 38.29436035 76.24816895 38.53051758 77.01391602 C38.96671478 78.42605497 39.4113689 79.83562007 39.8659668 81.24194336 C41.32569568 86.01704844 41.58545461 90.13570161 41.390625 95.12890625 C39.44348291 95.86747739 37.49555039 96.60405694 35.54296875 97.328125 C33.79939135 97.9768244 32.06263608 98.64384073 30.328125 99.31640625 C26.9194901 100.25922016 23.9127952 100.18283818 20.390625 100.12890625 C20.23505127 99.46060791 20.07947754 98.79230957 19.91918945 98.10375977 C16.77591485 84.65746545 13.49060494 71.31777978 9.390625 58.12890625 C-5.25360753 59.88177651 -17.97040914 70.47583023 -27.36328125 81.19140625 C-30.9644724 85.90113798 -33.91755183 90.96218478 -36.859375 96.1015625 C-38.609375 99.12890625 -38.609375 99.12890625 -39.609375 100.12890625 C-46.18531556 99.64179954 -52.29563445 97.97428262 -58.609375 96.12890625 C-59.02745468 88.85122286 -58.0185314 82.98063547 -55.609375 76.12890625 C-54.16723007 71.95516915 -52.99043855 67.78783072 -51.921875 63.50390625 C-38.99635344 13.82947588 -38.99635344 13.82947588 -20.3359375 1.08203125 C-14.45721465 -2.16323657 -6.26301403 -2.0907966 0 0 Z " fill="#FCB419" transform="translate(98.609375,40.87109375)"/>
<path d="M0 0 C0.30292969 1.02996094 0.60585937 2.05992188 0.91796875 3.12109375 C1.11817627 3.80115479 1.31838379 4.48121582 1.5246582 5.18188477 C1.97121441 6.70149169 2.41633546 8.22152101 2.86010742 9.74194336 C4.02236662 13.71650213 5.20581592 17.68160095 6.4453125 21.6328125 C6.67452393 22.3760376 6.90373535 23.1192627 7.13989258 23.88500977 C7.57608978 25.29714872 8.0207439 26.70671382 8.4753418 28.11303711 C9.93507068 32.88814219 10.19482961 37.00679536 10 42 C8.05285791 42.73857114 6.10492539 43.47515069 4.15234375 44.19921875 C2.40876635 44.84791815 0.67201108 45.51493448 -1.0625 46.1875 C-4.4711349 47.13031391 -7.4778298 47.05393193 -11 47 C-11.15557373 46.33170166 -11.31114746 45.66340332 -11.47143555 44.97485352 C-15.67493329 23.48984681 -15.67493329 23.48984681 -23 3 C-15.43208574 1.30912111 -7.77954306 0 0 0 Z " fill="#FDBA19" transform="translate(130,94)"/>
<path d="M0 0 C3.78712334 1.32549317 5.54360933 3.51339994 7.5 6.875 C11.04824316 14.75884865 14.5 23.13857363 14.5 31.875 C13.04980469 32.23851562 13.04980469 32.23851562 11.5703125 32.609375 C-1.20378607 35.51767644 -1.20378607 35.51767644 -12.64453125 41.49609375 C-14.5 42.875 -14.5 42.875 -16.5 42.875 C-16.11326975 35.03828082 -14.28188274 28.15017198 -11.75 20.75 C-11.41484375 19.71746094 -11.0796875 18.68492188 -10.734375 17.62109375 C-5.44977711 1.90742199 -5.44977711 1.90742199 0 0 Z " fill="#FEFBF4" transform="translate(89.5,51.125)"/>
<path d="M0 0 C0.66 0.33 1.32 0.66 2 1 C-0.97 3.97 -3.94 6.94 -7 10 C-7.66 9.67 -8.32 9.34 -9 9 C-6.21000549 5.51250686 -3.74764169 2.49842779 0 0 Z " fill="#FDC53D" transform="translate(78,42)"/>
</svg>
